# xmcd CD database file
#
# Track frame offsets:
#	150
#	25240
#	45765
#	67495
#	89097
#	108042
#	125505
#	144062
#	163335
#	182247
#
# Disc length: 2772 seconds
#
# Revision: 2
# Processed by: cddbd v1.5.1PL0 Copyright (c) Steve Scherf et al.
# Submitted via: CDex 1.50
#
DISCID=880ad20a
DTITLE=さだまさし - 風のおもかげ
DYEAR=1983
DGENRE=Folk
TTITLE0=向い風
TTITLE1=上海物語
TTITLE2=安曇野(あずみの)
TTITLE3=甲子園
TTITLE4=あこがれの雲南
TTITLE5=CONGRATULATIONS
TTITLE6=孤独(ソリティア)
TTITLE7=転校生(ちょっとピンボケ)
TTITLE8=津軽
TTITLE9=祈り
EXTD=YEAR: 1983
EXTT0=
EXTT1=
EXTT2=
EXTT3=
EXTT4=
EXTT5=
EXTT6=
EXTT7=
EXTT8=
EXTT9=
PLAYORDER=
